<svg data-v-0dd9719b="" version="1.0" xmlns="http://www.w3.org/2000/svg" xmlns:xlink="http://www.w3.org/1999/xlink" width="100%" height="100%" viewBox="0 0 340.000000 250.000000" preserveAspectRatio="xMidYMid meet" color-interpolation-filters="sRGB" style="margin: auto;"> 
  <rect data-v-0dd9719b="" x="0" y="0" width="100%" height="100%" fill="#ffffff" fill-opacity="1" class="background"></rect>
  <!----> 
  <g data-v-0dd9719b="" fill="#6da3ec" class="iconlinesvg-g iconlinesvg" transform="translate(101.9749984741211,91.28509140014648)"><g class="tp-name" transform="translate(0,0)">
    <g transform="translate(0, 0)"><g>
      <g class="imagesvg"><g>
        <rect fill="#6da3ec" fill-opacity="0" stroke-width="2" x="0" y="0" width="73.03733951443822" height="53.2738183740377" class="image-rect"></rect> 
        <svg x="0" y="0" width="73.03733951443822" height="53.2738183740377" filtersec="colorsb5940416345" class="image-svg-svg primary" style="overflow: visible;">
          <svg xmlns="http://www.w3.org/2000/svg" viewBox="0 -0.0011663436889648438 132.29000854492188 96.49335479736328">
            <title>资源 91</title>
            <path d="M75.17.09C85.54.63 95.44-1.26 105 1.8c12.12 3.88 19.3 12.81 23.47 24.43a69.2 69.2 0 0 1 3.74 23.36c0 14.28-.09 28.56.08 42.84 0 3.32-1.12 4.11-4.23 4.06-10-.16-20.09 0-30.13-.06-4 0-4.15-.16-4.16-4.07V49.2c-.06-13.31-2.21-26.15-9.59-37.54-2.52-3.86-5.66-7.3-9.01-11.57z" fill="#062aaa"></path>
            <path d="M28.72.13c9.84.52 19.84-1.42 29.49 1.72 12.12 3.93 19.16 13 23.28 24.59A68.16 68.16 0 0 1 85 49.19v43.15c0 3.92-.18 4.08-4.14 4.08-9.94 0-19.88-.09-29.82.07-3 .05-4-.86-4-3.94q.21-21.89 0-43.79C47 38.44 45.85 28.16 41 18.91 38.09 13.27 33.92 8.26 30.27 3a19 19 0 0 0-1.89-2z" fill="#062aaa"></path>
            <path d="M0 48V4.17C.05.11.32-.22 4.44.33 18.24 2.2 27.54 10 33.15 22.5a58.8 58.8 0 0 1 5.08 23.71c.18 15.67 0 31.34.14 47 0 2.5-.8 3.3-3.3 3.27q-15.72-.18-31.43 0C.82 96.52 0 95.5 0 92.79.09 77.86 0 62.94 0 48z" fill="#6da3ec"></path>
          </svg>
        </svg> 
        <!---->
      </g>
    </g>
  </g>
</g>
<g transform="translate(80, 4.43940918701885)">
  <g data-gra="path-name" fill="#6da3ec" transform="scale(1)">
    <path d="M10.60-44.40L4.55-44.40L4.55 0L10.60 0Z" transform="translate(-4.55, 44.395)"></path>
  </g>
</g>
<g transform="translate(93, 4.43940918701885)">
  <g data-gra="path-name" fill="#6da3ec" transform="scale(1)">
    <path d="M6.70-41.21L27.04 0L34.38 0L34.32-0.07L34.38 0L34.38-44.40L31.59-44.40L31.59-3.71L11.51-44.40L3.90-44.40L3.90 0L6.70 0Z" transform="translate(-3.9000000000000004, 44.395)"></path>
  </g>
</g>
<g transform="translate(130, 4.43940918701885)">
  <g data-gra="path-name" fill="#6da3ec" transform="scale(1)">
    <path d="M10.60-44.40L4.55-44.40L4.55 0L10.60 0Z" transform="translate(-4.55, 44.395)"></path>
  </g>
</g>
</g> 
<g data-gra="path-slogan" fill-rule="" class="tp-slogan" fill="#6da3ec" transform="translate(5,59.27381896972656)">
  <rect x="0" height="1" y="3.580000400543213" width="27.935001373291016"></rect> 
  <rect height="1" y="3.580000400543213" width="27.935001373291016" x="98.1150016784668"></rect> 
  <g transform="translate(30.935001373291016,0)"><g transform="scale(1)">
    <path d="M0.62-3.94L0.62-3.94Q0.62-4.88 0.89-5.64Q1.15-6.40 1.62-6.92Q2.09-7.45 2.73-7.73Q3.37-8.02 4.13-8.02L4.13-8.02Q4.85-8.02 5.39-7.72Q5.93-7.43 6.28-7.04L6.28-7.04L5.71-6.41Q5.40-6.74 5.02-6.94Q4.64-7.14 4.14-7.14L4.14-7.14Q3.58-7.14 3.12-6.92Q2.66-6.70 2.34-6.28Q2.02-5.87 1.84-5.28Q1.66-4.69 1.66-3.96L1.66-3.96Q1.66-3.22 1.83-2.62Q2.00-2.03 2.32-1.61Q2.63-1.19 3.08-0.96Q3.53-0.73 4.09-0.73L4.09-0.73Q4.67-0.73 5.09-0.96Q5.52-1.19 5.90-1.61L5.90-1.61L6.47-1.00Q6-0.46 5.41-0.16Q4.82 0.14 4.07 0.14L4.07 0.14Q3.32 0.14 2.69-0.13Q2.06-0.41 1.60-0.93Q1.14-1.45 0.88-2.21Q0.62-2.98 0.62-3.94ZM11.49 0.14L11.49 0.14Q10.74 0.14 10.13-0.14Q9.51-0.43 9.06-0.97Q8.62-1.50 8.37-2.26Q8.13-3.02 8.13-3.97L8.13-3.97Q8.13-4.92 8.37-5.67Q8.62-6.42 9.06-6.94Q9.51-7.46 10.13-7.74Q10.74-8.02 11.49-8.02L11.49-8.02Q12.23-8.02 12.85-7.73Q13.47-7.45 13.92-6.93Q14.37-6.41 14.61-5.66Q14.86-4.91 14.86-3.97L14.86-3.97Q14.86-3.02 14.61-2.26Q14.37-1.50 13.92-0.97Q13.47-0.43 12.85-0.14Q12.23 0.14 11.49 0.14ZM11.49-0.73L11.49-0.73Q12.02-0.73 12.44-0.96Q12.87-1.19 13.17-1.61Q13.48-2.04 13.65-2.63Q13.82-3.23 13.82-3.97L13.82-3.97Q13.82-4.70 13.65-5.29Q13.48-5.88 13.17-6.29Q12.87-6.70 12.44-6.92Q12.02-7.14 11.49-7.14L11.49-7.14Q10.96-7.14 10.53-6.92Q10.11-6.70 9.80-6.29Q9.50-5.88 9.33-5.29Q9.16-4.70 9.16-3.97L9.16-3.97Q9.16-3.23 9.33-2.63Q9.50-2.04 9.80-1.61Q10.11-1.19 10.53-0.96Q10.96-0.73 11.49-0.73ZM17.55 0L17.55-7.87L18.73-7.87L20.25-3.65L20.83-2.04L20.88-2.04L21.43-3.65L22.94-7.87L24.12-7.87L24.12 0L23.17 0L23.17-4.33Q23.17-4.86 23.21-5.50Q23.25-6.13 23.30-6.66L23.30-6.66L23.25-6.66L22.62-4.91L21.10-0.79L20.54-0.79L19.02-4.91L18.39-6.66L18.34-6.66Q18.38-6.13 18.43-5.50Q18.48-4.86 18.48-4.33L18.48-4.33L18.48 0L17.55 0ZM27.28 0L27.28-7.87L28.45-7.87L29.98-3.65L30.55-2.04L30.60-2.04L31.15-3.65L32.66-7.87L33.84-7.87L33.84 0L32.89 0L32.89-4.33Q32.89-4.86 32.93-5.50Q32.98-6.13 33.02-6.66L33.02-6.66L32.98-6.66L32.34-4.91L30.83-0.79L30.26-0.79L28.74-4.91L28.12-6.66L28.07-6.66Q28.10-6.13 28.15-5.50Q28.20-4.86 28.20-4.33L28.20-4.33L28.20 0L27.28 0ZM37 0L37-7.87L41.54-7.87L41.54-7.03L38.00-7.03L38.00-4.56L40.98-4.56L40.98-3.71L38.00-3.71L38.00-0.85L41.66-0.85L41.66 0L37 0ZM45.32-7.07L45.32-4.14L46.64-4.14Q47.56-4.14 48.06-4.52Q48.55-4.90 48.55-5.66L48.55-5.66Q48.55-6.44 48.06-6.76Q47.56-7.07 46.64-7.07L46.64-7.07L45.32-7.07ZM49.77 0L48.64 0L46.75-3.32L45.32-3.32L45.32 0L44.32 0L44.32-7.87L46.78-7.87Q47.38-7.87 47.89-7.76Q48.40-7.64 48.77-7.38Q49.14-7.12 49.34-6.70Q49.54-6.28 49.54-5.66L49.54-5.66Q49.54-4.74 49.06-4.19Q48.58-3.64 47.78-3.43L47.78-3.43L49.77 0ZM51.84-3.94L51.84-3.94Q51.84-4.88 52.10-5.64Q52.37-6.40 52.84-6.92Q53.30-7.45 53.95-7.73Q54.59-8.02 55.34-8.02L55.34-8.02Q56.06-8.02 56.60-7.72Q57.14-7.43 57.49-7.04L57.49-7.04L56.93-6.41Q56.62-6.74 56.24-6.94Q55.86-7.14 55.36-7.14L55.36-7.14Q54.79-7.14 54.34-6.92Q53.88-6.70 53.56-6.28Q53.23-5.87 53.05-5.28Q52.87-4.69 52.87-3.96L52.87-3.96Q52.87-3.22 53.05-2.62Q53.22-2.03 53.53-1.61Q53.84-1.19 54.29-0.96Q54.74-0.73 55.31-0.73L55.31-0.73Q55.88-0.73 56.31-0.96Q56.74-1.19 57.12-1.61L57.12-1.61L57.68-1.00Q57.22-0.46 56.63-0.16Q56.04 0.14 55.28 0.14L55.28 0.14Q54.54 0.14 53.91-0.13Q53.28-0.41 52.82-0.93Q52.36-1.45 52.10-2.21Q51.84-2.98 51.84-3.94ZM60.15 0L60.15-7.87L64.68-7.87L64.68-7.03L61.14-7.03L61.14-4.56L64.13-4.56L64.13-3.71L61.14-3.71L61.14-0.85L64.80-0.85L64.80 0L60.15 0Z" transform="translate(-0.624, 8.016)"></path>
  </g>
</g>
</g>
</g>
<defs v-gra="od"></defs>
</svg>